<svg height="30" viewBox="0 0 65 73" fill="none" xmlns="http://www.w3.org/2000/svg">
<path d="M32.572 73C29.2428 73 26.5334 70.3464 26.4435 67.0389L9.19262 57.0797C8.29551 57.5655 7.32772 57.8046 6.36935 57.8183L6.27456 57.8189C4.1582 57.8165 2.10072 56.7172 0.966423 54.7525C-0.698143 51.8694 0.245171 48.1962 3.06446 46.4646L3.06446 26.5454C0.245171 24.8138 -0.698143 21.1406 0.966423 18.2575C2.08379 16.3222 4.09699 15.2265 6.17983 15.1919L6.27456 15.1911C7.26381 15.1899 8.26593 15.4285 9.19263 15.9303L26.4435 5.97088C26.5326 2.69714 29.188 0.0640488 32.4706 0.0108261L32.572 0.0100021C35.9011 0.0100021 38.6105 2.66348 38.7005 5.97083L55.9509 15.9306C56.8482 15.4446 57.8161 15.2055 58.7747 15.1917L58.8695 15.1911C60.9858 15.1935 63.0433 16.2929 64.1776 18.2575C65.8422 21.1406 64.8989 24.8138 62.0796 26.5454L62.0796 46.4646C64.8989 48.1962 65.8422 51.8694 64.1776 54.7525C63.0602 56.6878 61.047 57.7835 58.9642 57.8181L58.8695 57.8189C57.8802 57.8201 56.8781 57.5815 55.9515 57.0797L38.7005 67.0391C38.6114 70.3129 35.956 72.946 32.6734 72.9992L32.572 73ZM32.572 9.06024L32.6514 9.05919C32.658 9.05901 32.6647 9.05881 32.6713 9.05859L32.6515 9.05918C32.678 9.05847 32.7044 9.0574 32.7308 9.05599L32.6713 9.05859C32.7003 9.05762 32.7291 9.05623 32.7579 9.05442L32.7308 9.05599C32.7576 9.05455 32.7845 9.05274 32.8112 9.05057L32.7579 9.05442C32.7842 9.05277 32.8104 9.05077 32.8365 9.04842L32.8112 9.05057C32.8349 9.04864 32.8585 9.04643 32.8821 9.04394L32.8365 9.04842C32.8653 9.04584 32.894 9.04283 32.9225 9.03941L32.8821 9.04394C32.9087 9.04113 32.9353 9.03796 32.9617 9.03442L32.9225 9.03941C32.9468 9.03651 32.9709 9.03332 32.9949 9.02983L32.9617 9.03442C32.9916 9.03043 33.0214 9.026 33.0511 9.0211L32.9949 9.02983C33.0193 9.02631 33.0435 9.02248 33.0676 9.01835L33.0511 9.0211C33.0763 9.01694 33.1014 9.01245 33.1264 9.00764L33.0676 9.01835C33.0942 9.01381 33.1206 9.0089 33.147 9.00364L33.1264 9.00764C33.1586 9.00146 33.1907 8.99474 33.2226 8.98749L33.147 9.00364C33.2077 8.99152 33.2677 8.97752 33.327 8.96169C33.3419 8.95776 33.3568 8.95364 33.3716 8.94943L33.327 8.96169C33.3514 8.95515 33.3758 8.94831 33.4 8.94116L33.3716 8.94943C33.3934 8.94327 33.415 8.93685 33.4366 8.93019L33.4 8.94116C34.6091 8.58424 35.4914 7.46557 35.4914 6.14081C35.4914 4.52845 34.1844 3.22138 32.572 3.22138C30.9597 3.22138 29.6526 4.52845 29.6526 6.14081C29.6526 7.45114 30.5158 8.55985 31.7047 8.92924C31.7195 8.93393 31.7345 8.93845 31.7495 8.94285L31.7047 8.92924C31.7269 8.93615 31.7492 8.94279 31.7717 8.94918L31.7495 8.94285C31.7734 8.94984 31.7974 8.95653 31.8215 8.96292L31.7717 8.94918C31.7976 8.95654 31.8236 8.96355 31.8497 8.9702L31.8215 8.96292C31.8788 8.97809 31.9368 8.99155 31.9952 9.00326C32.0044 9.00512 32.0137 9.00694 32.0231 9.00871L31.9952 9.00326C32.0224 9.0087 32.0497 9.01375 32.077 9.01842L32.0231 9.00871C32.0455 9.01299 32.0681 9.017 32.0907 9.02076L32.077 9.01842C32.1015 9.0226 32.126 9.02647 32.1507 9.03003L32.0907 9.02076C32.1208 9.02575 32.151 9.03028 32.1814 9.03434L32.1507 9.03003C32.1742 9.03343 32.1977 9.03654 32.2214 9.03938L32.1814 9.03434C32.2082 9.03792 32.2351 9.04113 32.262 9.04398L32.2214 9.03938C32.25 9.0428 32.2787 9.04581 32.3075 9.0484L32.262 9.04398C32.2855 9.04646 32.3091 9.04866 32.3328 9.05058L32.3075 9.0484C32.3336 9.05075 32.3599 9.05276 32.3862 9.05441L32.3328 9.05058C32.3595 9.05275 32.3863 9.05455 32.4132 9.056L32.3862 9.05441C32.4149 9.05622 32.4437 9.05761 32.4726 9.05858L32.4132 9.056C32.4658 9.05882 32.5187 9.06024 32.572 9.06024ZM42.0624 29.0965L52.9229 22.8263C52.9152 22.7957 52.9077 22.7652 52.9004 22.7346C52.8982 22.7252 52.896 22.7156 52.8938 22.706C52.8889 22.685 52.8841 22.6641 52.8795 22.6432C52.8762 22.628 52.8728 22.6125 52.8695 22.5971C52.8657 22.5791 52.862 22.5612 52.8584 22.5433C52.8545 22.5243 52.8507 22.5053 52.8471 22.4864C52.8366 22.432 52.8268 22.3775 52.8178 22.3229C52.8155 22.3091 52.8133 22.2951 52.811 22.2812C52.79 22.1478 52.7734 22.0143 52.7613 21.8806C52.7599 21.8656 52.7586 21.8506 52.7574 21.8356C52.7527 21.7791 52.7488 21.7225 52.7456 21.6659C52.7454 21.6611 52.7451 21.6563 52.7449 21.6514L52.7456 21.6659C52.744 21.6367 52.7426 21.6076 52.7414 21.5784C52.7407 21.5608 52.7401 21.5431 52.7395 21.5254C52.7389 21.5059 52.7383 21.4866 52.7379 21.4673C52.7376 21.4525 52.7373 21.4377 52.7371 21.4228C52.7368 21.4081 52.7367 21.3935 52.7365 21.3788C52.7364 21.3654 52.7364 21.3519 52.7363 21.3385L52.7365 21.3788C52.7339 21.0522 52.7573 20.7268 52.8061 20.4058C52.8142 20.3524 52.823 20.2992 52.8325 20.246C52.8367 20.2228 52.841 20.1997 52.8454 20.1766C52.8547 20.1276 52.8647 20.0787 52.8752 20.0299C52.879 20.0123 52.8829 19.9947 52.8869 19.9771C52.8897 19.9644 52.8926 19.9518 52.8955 19.9392C52.8983 19.9274 52.901 19.9156 52.9039 19.9037C52.9093 19.8811 52.9147 19.8586 52.9203 19.8362C52.9371 19.7694 52.9549 19.7027 52.9739 19.6363C52.9875 19.5887 53.0017 19.5412 53.0165 19.4939C53.0215 19.4778 53.0266 19.4619 53.0317 19.4459C53.0359 19.4328 53.0402 19.4197 53.0445 19.4066C53.0495 19.3914 53.0545 19.3762 53.0597 19.361C53.0666 19.3403 53.0737 19.3198 53.0809 19.2992C53.0844 19.2892 53.0879 19.2791 53.0915 19.269C53.0986 19.2489 53.1059 19.2289 53.1132 19.209C53.1147 19.2048 53.1163 19.2005 53.1179 19.1961C53.1274 19.1703 53.1371 19.1448 53.1469 19.1193C53.1699 19.0594 53.1939 18.9998 53.2188 18.9405C53.2387 18.8933 53.2592 18.8462 53.2803 18.7994C53.2874 18.7836 53.2947 18.7677 53.302 18.7518C53.3067 18.7417 53.3113 18.7316 53.316 18.7215C53.326 18.7001 53.3362 18.6788 53.3465 18.6574C53.3536 18.6426 53.3608 18.6278 53.368 18.6131C53.3746 18.5997 53.3813 18.5862 53.388 18.5728C53.3968 18.5553 53.4056 18.5378 53.4146 18.5204C53.4201 18.5097 53.4257 18.4988 53.4314 18.4879C53.4408 18.4698 53.4501 18.452 53.4596 18.4342C53.465 18.4242 53.4703 18.4142 53.4757 18.4042C53.5024 18.3548 53.5297 18.3058 53.5578 18.2571L37.8824 9.20669C37.8792 9.21206 37.8761 9.21742 37.873 9.22277C37.8441 9.27247 37.8145 9.32165 37.7842 9.37037C37.7791 9.37866 37.7739 9.38694 37.7687 9.3952C37.7572 9.41354 37.7456 9.43187 37.7338 9.45013C37.7262 9.46201 37.7186 9.47373 37.711 9.48541C37.7015 9.49998 37.6918 9.51468 37.6821 9.52933C37.6732 9.54264 37.6644 9.55582 37.6555 9.56897C37.6497 9.57756 37.6439 9.58618 37.638 9.59478C37.543 9.73381 37.4425 9.86868 37.3367 9.99913C37.3059 10.0372 37.2745 10.0749 37.2427 10.1123C37.2132 10.147 37.1833 10.1814 37.153 10.2154C37.1386 10.2316 37.1241 10.2476 37.1096 10.2636C37.1015 10.2725 37.0933 10.2815 37.0852 10.2904C37.0767 10.2995 37.0683 10.3086 37.0599 10.3177C37.0249 10.3553 36.9893 10.3925 36.9534 10.4292C36.8404 10.5446 36.7229 10.6556 36.6011 10.7619L36.5902 10.7714C36.5509 10.8055 36.5113 10.8391 36.4712 10.8721C36.4647 10.8775 36.4583 10.8828 36.4519 10.888C36.4369 10.9002 36.4218 10.9125 36.4066 10.9247C36.3929 10.9357 36.3792 10.9466 36.3655 10.9574C36.358 10.9633 36.3504 10.9692 36.3429 10.9751C36.2934 11.0138 36.2433 11.0517 36.1927 11.0888C36.1895 11.0911 36.1866 11.0933 36.1837 11.0954C36.1684 11.1066 36.1529 11.1178 36.1374 11.1289C36.1004 11.1554 36.0632 11.1814 36.0256 11.207L36.01 11.2177C35.9048 11.2891 35.7972 11.3573 35.6875 11.4222C35.6768 11.4285 35.6661 11.4348 35.6553 11.441C35.6107 11.467 35.5657 11.4925 35.5204 11.5174C35.5021 11.5275 35.4839 11.5374 35.4656 11.5472C35.4548 11.553 35.444 11.5587 35.4331 11.5644C35.4207 11.571 35.4082 11.5776 35.3956 11.5841C35.3742 11.5953 35.3527 11.6063 35.3311 11.6172C35.3225 11.6215 35.3137 11.6259 35.3049 11.6303C35.2553 11.655 35.2055 11.6791 35.1553 11.7024C35.1438 11.7078 35.1321 11.7132 35.1205 11.7185C35.069 11.7421 35.0172 11.7649 34.9651 11.787C34.9137 11.8088 34.8619 11.8299 34.8098 11.8504C34.762 11.8691 34.7139 11.8873 34.6655 11.9049C34.6539 11.9091 34.6423 11.9133 34.6308 11.9174C34.6084 11.9254 34.5858 11.9333 34.5631 11.9411C34.5575 11.943 34.552 11.9449 34.5465 11.9467C34.5217 11.9552 34.4967 11.9635 34.4716 11.9716C34.4622 11.9747 34.4528 11.9778 34.4433 11.9808C34.4182 11.9888 34.3928 11.9968 34.3675 12.0045C34.3617 12.0063 34.3559 12.008 34.3502 12.0098C34.3292 12.0161 34.3081 12.0224 34.287 12.0285C34.2689 12.0338 34.2508 12.039 34.2326 12.0441C34.228 12.0453 34.2235 12.0466 34.219 12.0479L34.2192 23.8548C37.5734 24.2694 40.4539 26.268 42.0624 29.0965ZM23.6401 29.3454C25.1408 26.5271 27.8545 24.5307 31.0078 23.9493L31.0078 12.0703C30.9725 12.061 30.9373 12.0514 30.9022 12.0415C30.8867 12.0371 30.8713 12.0327 30.8559 12.0282C30.7375 11.9937 30.6205 11.9558 30.5052 11.9145C30.4949 11.9108 30.4847 11.9071 30.4745 11.9034C30.4519 11.8952 30.4294 11.8868 30.407 11.8784C30.3991 11.8754 30.3911 11.8724 30.3832 11.8693C30.3618 11.8612 30.3405 11.8529 30.3193 11.8445C30.3085 11.8402 30.2976 11.8359 30.2867 11.8315C30.2624 11.8218 30.2382 11.8118 30.2141 11.8018C30.2074 11.799 30.2006 11.7961 30.1938 11.7933C30.14 11.7706 30.0867 11.7473 30.0338 11.7232C30.0193 11.7166 30.005 11.71 29.9907 11.7033C29.9482 11.6836 29.9058 11.6633 29.8638 11.6425C29.8377 11.6297 29.8117 11.6166 29.7858 11.6034C29.7704 11.5955 29.7549 11.5875 29.7395 11.5795C29.733 11.5761 29.7267 11.5727 29.7203 11.5694C29.6959 11.5566 29.6716 11.5436 29.6474 11.5304C29.6387 11.5257 29.63 11.5209 29.6213 11.5161C29.6065 11.508 29.5917 11.4998 29.577 11.4915C29.5303 11.4653 29.4839 11.4385 29.4379 11.4111C29.4279 11.4051 29.418 11.3992 29.4081 11.3932C29.389 11.3817 29.3699 11.37 29.3509 11.3582C29.339 11.3509 29.3272 11.3435 29.3154 11.3361C29.3037 11.3287 29.2919 11.3213 29.2802 11.3138C29.2665 11.3051 29.2531 11.2965 29.2397 11.2878C29.1966 11.2598 29.1537 11.2312 29.1113 11.2022C29.0964 11.192 29.0815 11.1817 29.0667 11.1714C28.991 11.1184 28.9165 11.0639 28.8432 11.0077C28.8291 10.9969 28.8149 10.9859 28.8008 10.9749L28.7895 10.966C28.73 10.9193 28.6715 10.8716 28.6138 10.8228C28.5995 10.8107 28.5854 10.7986 28.5713 10.7865C28.5566 10.7738 28.542 10.7611 28.5275 10.7483C28.5175 10.7396 28.5075 10.7308 28.4975 10.7219C28.4895 10.7146 28.4814 10.7075 28.4734 10.7003C28.3578 10.5963 28.2462 10.488 28.1388 10.3756C28.129 10.3653 28.1192 10.3549 28.1094 10.3445C28.0651 10.2976 28.0216 10.25 27.9789 10.2017L27.9762 10.1986C27.901 10.1135 27.8282 10.0263 27.7578 9.93713C27.7471 9.92377 27.7366 9.91031 27.7261 9.8968C27.7165 9.88427 27.7068 9.87175 27.6972 9.85918C27.687 9.84597 27.677 9.8327 27.667 9.81939C27.6596 9.80949 27.6523 9.79964 27.645 9.78979C27.6319 9.77222 27.6188 9.75444 27.6059 9.73658C27.598 9.72567 27.5902 9.71478 27.5824 9.70387C27.5722 9.6897 27.5621 9.67553 27.5521 9.6613C27.5436 9.64905 27.535 9.63667 27.5264 9.62426C27.515 9.60795 27.5039 9.59168 27.4928 9.57535C27.4852 9.56394 27.4774 9.55246 27.4698 9.54095C27.404 9.44264 27.3412 9.34235 27.2812 9.24015L27.2618 9.20669L11.5862 18.257C11.6193 18.3145 11.6508 18.3713 11.6814 18.4286C11.6919 18.4483 11.7023 18.468 11.7126 18.4878C11.7204 18.5027 11.728 18.5175 11.7356 18.5323C11.74 18.5411 11.7445 18.5499 11.7489 18.5586C11.7761 18.6125 11.8024 18.6669 11.828 18.7216C11.8327 18.7317 11.8374 18.7418 11.8421 18.7519C11.8511 18.7714 11.86 18.791 11.8688 18.8106C11.8729 18.8198 11.877 18.829 11.881 18.8382C11.8901 18.8586 11.899 18.879 11.9078 18.8995C11.9446 18.9853 11.9794 19.0717 12.0122 19.1589C12.0437 19.2424 12.0733 19.3266 12.1011 19.4113C12.1045 19.4217 12.1079 19.4323 12.1113 19.4429C12.1527 19.5714 12.1898 19.7011 12.2226 19.8319C12.2263 19.8468 12.23 19.8617 12.2336 19.8766C12.246 19.9275 12.2577 19.9785 12.2688 20.0297C12.2714 20.0421 12.2741 20.0545 12.2767 20.0668C12.2817 20.0906 12.2865 20.1146 12.2913 20.1385C12.2934 20.1496 12.2956 20.1606 12.2977 20.1717C12.3146 20.26 12.3296 20.3487 12.3427 20.4377C12.3473 20.4693 12.3517 20.501 12.3559 20.5328C12.3614 20.5751 12.3665 20.6175 12.3711 20.66C12.3809 20.749 12.3887 20.8383 12.3946 20.9278C12.3957 20.9456 12.3968 20.9633 12.3978 20.981C12.3986 20.9946 12.3993 21.0083 12.4 21.022C12.4029 21.0797 12.405 21.1374 12.4062 21.1952C12.4076 21.2564 12.408 21.3177 12.4075 21.379C12.4074 21.3936 12.4072 21.4083 12.407 21.423C12.4068 21.434 12.4066 21.4449 12.4064 21.4557C12.4052 21.5143 12.4031 21.5731 12.4002 21.632C12.3991 21.6529 12.398 21.6738 12.3967 21.6947C12.3959 21.709 12.395 21.7232 12.394 21.7375C12.3932 21.7491 12.3924 21.7607 12.3916 21.7722C12.3867 21.8397 12.3806 21.9073 12.3734 21.9748C12.3733 21.9759 12.3732 21.977 12.3731 21.978L12.3734 21.9748C12.3586 22.1139 12.339 22.2529 12.3145 22.3915C12.3121 22.405 12.3097 22.4184 12.3072 22.4319C12.3041 22.449 12.3009 22.466 12.2976 22.4831C12.2878 22.5339 12.2773 22.5847 12.2662 22.6355C12.2569 22.6777 12.2472 22.7199 12.237 22.7621L23.6401 29.3454ZM60.3279 23.8512C61.7242 23.045 62.2027 21.2595 61.3965 19.8632C60.5903 18.4669 58.8048 17.9884 57.4085 18.7946C56.3078 19.4301 55.7775 20.674 55.9971 21.8562C55.9991 21.8678 56.0013 21.8793 56.0036 21.8909L55.9971 21.8562C56.0011 21.8781 56.0054 21.9 56.01 21.9219L56.0036 21.8909C56.0092 21.9189 56.0152 21.9469 56.0216 21.9749L56.01 21.9219C56.0162 21.9513 56.0229 21.9808 56.03 22.0101L56.0216 21.9749C56.0269 21.9979 56.0325 22.021 56.0384 22.044L56.03 22.0101C56.0361 22.0352 56.0425 22.0602 56.0493 22.0852L56.0384 22.044C56.0454 22.0713 56.0527 22.0985 56.0605 22.1257L56.0493 22.0852C56.0556 22.1084 56.0622 22.1316 56.0691 22.1548L56.0605 22.1257C56.0852 22.2115 56.1139 22.2966 56.1467 22.3807C56.1513 22.3925 56.156 22.4044 56.1608 22.4162L56.1467 22.3807C56.1571 22.4073 56.1679 22.4338 56.1791 22.4602L56.1608 22.4162C56.1706 22.4404 56.1807 22.4645 56.1912 22.4885L56.1791 22.4602C56.1885 22.4824 56.1982 22.5045 56.2082 22.5265L56.1912 22.4885C56.2037 22.5171 56.2167 22.5455 56.2301 22.5738L56.2082 22.5265C56.2189 22.5501 56.23 22.5737 56.2413 22.5971L56.2301 22.5738C56.2412 22.5971 56.2526 22.6203 56.2643 22.6434L56.2413 22.5971C56.2552 22.6256 56.2696 22.654 56.2845 22.6822L56.2643 22.6434C56.2812 22.6766 56.2988 22.7096 56.3171 22.7424L56.3399 22.7826C56.3798 22.8519 56.4223 22.919 56.4672 22.9839C56.4736 22.9932 56.48 23.0024 56.4864 23.0116L56.4672 22.9839C56.4985 23.0293 56.5309 23.0736 56.5644 23.1167C56.5703 23.1244 56.5762 23.1318 56.5821 23.1392L56.5644 23.1167C56.5781 23.1343 56.5919 23.1517 56.606 23.169L56.5821 23.1392C56.6009 23.1631 56.6202 23.1866 56.6397 23.2097L56.606 23.169C56.6218 23.1884 56.6379 23.2077 56.6542 23.2267L56.6397 23.2097C56.6544 23.2271 56.6692 23.2442 56.6842 23.2612L56.6542 23.2267C56.6933 23.2723 56.7337 23.3166 56.7753 23.3594C56.8054 23.3903 56.836 23.4205 56.8672 23.4498C56.8961 23.4771 56.9255 23.5038 56.9555 23.5298C56.9717 23.5436 56.9879 23.5573 57.0042 23.5708L56.9555 23.5298C56.9747 23.5464 56.9941 23.5629 57.0138 23.579L57.0042 23.5708C57.9173 24.3278 59.2406 24.479 60.3279 23.8512ZM8.29959 23.4281L8.32312 23.4053C8.35292 23.376 8.38213 23.3459 8.41074 23.3152C8.41474 23.3109 8.41859 23.3067 8.42243 23.3026L8.41074 23.3152C8.42868 23.2959 8.4464 23.2764 8.46386 23.2565L8.42243 23.3026C8.44149 23.2818 8.46029 23.2608 8.47882 23.2395L8.46386 23.2565C8.48201 23.236 8.49989 23.2151 8.51749 23.1939L8.47882 23.2395C8.49467 23.2212 8.51032 23.2027 8.52577 23.184L8.51749 23.1939C8.53239 23.1761 8.54709 23.158 8.56159 23.1397L8.52577 23.184C8.54614 23.1593 8.56617 23.1342 8.58582 23.1087L8.56159 23.1397C8.57807 23.1189 8.5943 23.0978 8.61026 23.0765L8.58582 23.1087C8.60059 23.0896 8.61515 23.0702 8.62951 23.0506L8.61026 23.0765C8.62575 23.0559 8.64099 23.035 8.65598 23.0138L8.62951 23.0506C8.64579 23.0284 8.6618 23.0058 8.67754 22.983L8.65598 23.0138C8.70854 22.9396 8.75802 22.8625 8.80416 22.7826C8.81187 22.7693 8.81946 22.7559 8.82694 22.7424L8.80416 22.7826C8.83847 22.7232 8.87045 22.6631 8.90014 22.6023C8.90739 22.5875 8.91452 22.5726 8.92151 22.5576L8.90014 22.6023C8.90856 22.5851 8.91681 22.5678 8.92487 22.5505L8.92151 22.5576C8.93298 22.5331 8.94408 22.5085 8.95482 22.4838C8.958 22.4766 8.96113 22.4693 8.96423 22.462L8.95482 22.4838C9.00183 22.3757 9.04192 22.2656 9.07515 22.1541C9.07721 22.1472 9.07922 22.1404 9.08121 22.1335L9.07515 22.1541C9.08266 22.129 9.08982 22.1037 9.09663 22.0784L9.08121 22.1335C9.08902 22.1065 9.09643 22.0795 9.10343 22.0525L9.09663 22.0784C9.10311 22.0543 9.10926 22.0302 9.1151 22.006L9.10343 22.0525C9.11748 21.9981 9.1299 21.9436 9.14071 21.8889C9.14234 21.8813 9.1438 21.8738 9.14524 21.8663L9.14071 21.8889C9.37629 20.697 8.84638 19.4359 7.73557 18.7946C6.33923 17.9884 4.55373 18.4669 3.74755 19.8632C2.94138 21.2595 3.4198 23.045 4.81614 23.8512C5.96867 24.5166 7.38634 24.3069 8.29959 23.4281ZM10.5504 47.2901L17.5052 43.2746C16.3227 41.8187 15.614 39.9624 15.614 37.9406C15.614 34.8979 17.219 32.2302 19.6286 30.7377L10.6916 25.578C10.6554 25.6156 10.6187 25.6527 10.5817 25.6893C10.5176 25.7526 10.4523 25.8142 10.3859 25.8743C10.1162 26.1179 9.8274 26.3349 9.52362 26.5242C9.40531 26.598 9.28476 26.6675 9.16217 26.7327L9.1584 26.7347C9.10271 26.7643 9.0466 26.793 8.9901 26.8209C8.90882 26.8609 8.82682 26.8991 8.74407 26.9354C8.71626 26.9476 8.68839 26.9596 8.66045 26.9713C8.59713 26.998 8.53331 27.0236 8.4691 27.0482C8.42786 27.064 8.38662 27.0792 8.34522 27.0941C8.26766 27.1218 8.18955 27.148 8.11096 27.1727C8.063 27.1877 8.01489 27.2021 7.96662 27.216C7.88173 27.2403 7.7963 27.2628 7.7104 27.2835C7.65935 27.2958 7.60807 27.3075 7.55664 27.3185C7.50742 27.329 7.45802 27.339 7.40849 27.3483C7.39845 27.3502 7.38855 27.352 7.37863 27.3538C7.34129 27.3607 7.30375 27.3672 7.26615 27.3734C7.21642 27.3816 7.1667 27.3891 7.11687 27.396C7.11153 27.3968 7.10627 27.3975 7.10102 27.3982C7.09068 27.3996 7.08021 27.401 7.06973 27.4024C7.01148 27.4101 6.95318 27.4169 6.89476 27.4228C6.83835 27.4286 6.78198 27.4336 6.72554 27.4378C6.71239 27.4388 6.69926 27.4397 6.68612 27.4406C6.62881 27.4445 6.5714 27.4476 6.51391 27.4499C6.50222 27.4504 6.49058 27.4508 6.47893 27.4512C6.44326 27.4524 6.40759 27.4533 6.37188 27.4539L6.27716 27.4547L6.27585 27.4547L6.27585 45.5553H6.27716C6.46674 45.5555 6.65585 45.5645 6.84386 45.5822C6.87745 45.5853 6.91097 45.5887 6.94445 45.5924C7.0211 45.6009 7.09763 45.6108 7.1739 45.6222C7.22717 45.6301 7.28027 45.6387 7.33324 45.648C7.40409 45.6605 7.47469 45.6741 7.54501 45.689C7.60147 45.701 7.65763 45.7137 7.71359 45.7272L7.81487 45.7526C8.00435 45.8018 8.19147 45.8599 8.37555 45.9269C8.41821 45.9424 8.46053 45.9584 8.50269 45.9748C8.5906 46.009 8.677 46.0449 8.7626 46.0828C8.77721 46.0893 8.79193 46.0959 8.80664 46.1025C8.84191 46.1185 8.87688 46.1347 8.9117 46.1512C8.97777 46.1826 9.04332 46.2152 9.10832 46.249C9.28975 46.3432 9.46683 46.4468 9.63881 46.5594C9.68225 46.5878 9.72535 46.6168 9.76812 46.6464C9.78558 46.6585 9.80303 46.6707 9.82042 46.683C9.87443 46.7212 9.92783 46.7603 9.98065 46.8003C10.1793 46.9508 10.3696 47.1141 10.5504 47.2901ZM54.6416 47.2444L54.6743 47.213C54.7804 47.1135 54.8896 47.0182 55.0016 46.9272C55.1998 46.7663 55.4067 46.6189 55.6211 46.4853L55.6244 46.4833C55.6711 46.4542 55.7182 46.4258 55.7657 46.398C55.7768 46.3915 55.7881 46.385 55.7994 46.3785L55.7657 46.398C55.8574 46.3444 55.9503 46.2932 56.0444 46.2445C56.1785 46.175 56.3151 46.1106 56.4537 46.0514C56.6615 45.9625 56.874 45.8852 57.09 45.8198C57.1049 45.8153 57.1197 45.8109 57.1346 45.8065C57.1828 45.7923 57.2313 45.7786 57.2799 45.7656C57.3594 45.7443 57.4393 45.7246 57.5195 45.7064C57.5383 45.7022 57.5573 45.698 57.5762 45.6939C57.6301 45.6823 57.6842 45.6714 57.7384 45.6612C57.7431 45.6603 57.7479 45.6594 57.7526 45.6585C57.7797 45.6535 57.8069 45.6486 57.8341 45.644L57.7526 45.6585C57.7942 45.6508 57.8358 45.6435 57.8775 45.6367C57.9325 45.6276 57.9876 45.6193 58.0429 45.6118C58.1016 45.6038 58.1605 45.5966 58.2194 45.5903C58.2296 45.5892 58.2399 45.5881 58.2501 45.5871C58.3053 45.5814 58.3605 45.5765 58.4158 45.5724C58.4298 45.5714 58.4438 45.5704 58.4578 45.5694C58.5127 45.5657 58.5676 45.5627 58.6226 45.5604C58.6368 45.5598 58.6511 45.5593 58.6655 45.5588C58.6719 45.5586 58.6782 45.5584 58.6845 45.5582C58.7456 45.5563 58.8068 45.5553 58.868 45.5553L58.855 45.5556L58.8669 45.5553L58.868 45.5553L58.868 27.4547H58.8669C58.754 27.4546 58.6413 27.4514 58.5289 27.445C58.482 27.4424 58.4352 27.4392 58.3885 27.4355C58.3255 27.4305 58.2625 27.4245 58.1996 27.4176C58.1341 27.4103 58.0686 27.402 58.0033 27.3927C57.9591 27.3863 57.9149 27.3795 57.8709 27.3722C57.8177 27.3634 57.7647 27.354 57.7118 27.3438C57.6611 27.334 57.6106 27.3236 57.5602 27.3126C57.4158 27.281 57.2725 27.2443 57.1307 27.2024C56.9659 27.1537 56.804 27.0984 56.6445 27.0365C56.5871 27.0142 56.53 26.991 56.4733 26.967C56.4552 26.9593 56.4371 26.9516 56.419 26.9437C56.3433 26.9108 56.2683 26.8764 56.194 26.8404C56.1553 26.8217 56.1167 26.8025 56.0783 26.7829C55.9588 26.7221 55.8411 26.6571 55.7255 26.5883C55.6904 26.5673 55.6554 26.546 55.6207 26.5244L55.533 26.4687C55.5038 26.4498 55.4747 26.4307 55.4458 26.4112C55.1072 26.1838 54.7895 25.9213 54.4982 25.625L43.4343 32.0124C46.9569 32.4549 49.6905 35.4333 49.7493 39.0618L49.7503 39.1813C49.7503 40.8298 49.1983 42.3493 48.269 43.5652L54.6416 47.2444ZM32.1943 43.1955H42.5247C44.7417 43.1955 46.5389 41.3983 46.5389 39.1813C46.5389 36.9643 44.7417 35.1671 42.5246 35.1671L40.313 35.167L40.1942 33.6901C39.8909 29.9176 36.7293 26.9864 32.9195 26.9864C29.8762 26.9864 27.185 28.8662 26.1075 31.6581L25.7109 32.6856L24.0803 32.6856C21.1781 32.6856 18.8253 35.0383 18.8253 37.9406C18.8253 40.8428 21.1781 43.1955 24.0803 43.1955H31.9292C31.9648 43.1955 31.9997 43.1952 32.0338 43.1945L32.0683 43.1938L32.1485 43.1953L32.1943 43.1955ZM27.2618 63.8032L27.2792 63.7732C27.3047 63.7298 27.3306 63.6867 27.3571 63.644C27.3653 63.6308 27.3735 63.6176 27.3818 63.6046C27.3891 63.5929 27.3966 63.5812 27.404 63.5695C27.4132 63.5552 27.4223 63.541 27.4315 63.5269C27.5104 63.4059 27.5934 63.2878 27.6804 63.1728C27.7232 63.1163 27.7668 63.0607 27.8114 63.0058C27.8834 62.9172 27.9577 62.8307 28.0344 62.7464C28.0415 62.7386 28.0485 62.7309 28.0556 62.7232C28.0698 62.7078 28.0841 62.6924 28.0984 62.677C28.1061 62.6689 28.1136 62.6609 28.1212 62.6529C28.1359 62.6374 28.1507 62.6219 28.1657 62.6065C28.297 62.4708 28.4344 62.3411 28.5777 62.218C28.642 62.1627 28.7076 62.1087 28.7743 62.056C28.7831 62.049 28.792 62.042 28.801 62.035C28.8169 62.0226 28.8328 62.0103 28.8487 61.9981C28.863 61.9872 28.8773 61.9763 28.8917 61.9655C28.9012 61.9584 28.9107 61.9513 28.9202 61.9442C28.9624 61.9128 29.0049 61.8821 29.0479 61.8519C29.0596 61.8436 29.0713 61.8355 29.083 61.8274C29.1242 61.7988 29.1657 61.7707 29.2077 61.7431C29.2259 61.7311 29.2442 61.7192 29.2626 61.7074C29.3146 61.6741 29.367 61.6415 29.4199 61.6097C29.4317 61.6026 29.4435 61.5956 29.4553 61.5886C29.499 61.5627 29.543 61.5374 29.5873 61.5127C29.5993 61.506 29.6115 61.4993 29.6236 61.4926C29.6388 61.4843 29.6539 61.4761 29.669 61.4679C29.7165 61.4423 29.7645 61.4173 29.8129 61.3928C29.8205 61.389 29.8281 61.3852 29.8358 61.3814C29.8542 61.3721 29.8728 61.363 29.8914 61.3539C29.9048 61.3474 29.9182 61.3409 29.9317 61.3345C29.9766 61.313 30.0219 61.2921 30.0674 61.2717C30.1124 61.2515 30.1578 61.2318 30.2034 61.2127C30.256 61.1906 30.3091 61.1692 30.3626 61.1486C30.4223 61.1255 30.4826 61.1033 30.5432 61.082C30.5516 61.0791 30.5599 61.0762 30.5682 61.0733C30.6196 61.0556 30.6714 61.0384 30.7235 61.022C30.7356 61.0182 30.7475 61.0145 30.7594 61.0108C30.7761 61.0056 30.7931 61.0004 30.8101 60.9953C30.8255 60.9907 30.8407 60.9862 30.856 60.9818C30.8743 60.9765 30.8927 60.9712 30.9112 60.966C30.9197 60.9636 30.9281 60.9613 30.9366 60.9589C30.9525 60.9545 30.9686 60.9502 30.9847 60.9459L31.008 60.94V46.407L24.0803 46.4069C22.6671 46.4069 21.3347 46.0606 20.1634 45.4483L12.1866 50.0538C12.2027 50.1116 12.2178 50.1695 12.232 50.2276C12.2446 50.2788 12.2565 50.3301 12.2677 50.3816C12.2782 50.4297 12.2881 50.4778 12.2974 50.5259C12.3009 50.5442 12.3044 50.5625 12.3077 50.5807C12.3111 50.599 12.3143 50.6173 12.3175 50.6357C12.3405 50.7677 12.359 50.8999 12.3731 51.0322C12.3757 51.0564 12.3781 51.0805 12.3804 51.1047C12.3846 51.149 12.3883 51.1933 12.3916 51.2375C12.3927 51.2526 12.3937 51.2677 12.3947 51.2827C12.396 51.3031 12.3973 51.3236 12.3984 51.3441C12.3992 51.3582 12.3999 51.3722 12.4006 51.3862C12.4034 51.4439 12.4053 51.5017 12.4065 51.5595C12.4068 51.5764 12.4071 51.5932 12.4073 51.6101C12.4074 51.623 12.4075 51.6359 12.4076 51.6489L12.4073 51.6101C12.4082 51.6888 12.4076 51.7673 12.4055 51.8458C12.4042 51.8952 12.4022 51.9446 12.3997 51.9939C12.399 52.0086 12.3982 52.0233 12.3973 52.0379C12.3965 52.0527 12.3955 52.0674 12.3946 52.0821C12.3867 52.2026 12.3753 52.3226 12.3603 52.4421C12.356 52.4765 12.3514 52.5109 12.3466 52.5453C12.3438 52.565 12.3409 52.5846 12.3379 52.6043L12.3466 52.5453C12.3324 52.6449 12.3158 52.7441 12.2969 52.8427C12.2947 52.854 12.2925 52.8652 12.2903 52.8764C12.2721 52.9681 12.2519 53.0593 12.2296 53.1501C12.2139 53.2136 12.1973 53.277 12.1796 53.34C12.1763 53.352 12.1729 53.364 12.1695 53.3759C12.167 53.3844 12.1646 53.393 12.162 53.4017L12.1695 53.3759C12.1501 53.4435 12.1296 53.5108 12.1079 53.5777C12.1049 53.587 12.1019 53.5964 12.0988 53.6057C12.0921 53.6261 12.0853 53.6464 12.0784 53.6666C12.0755 53.6752 12.0725 53.6838 12.0695 53.6924C12.0503 53.7482 12.0302 53.8037 12.0093 53.8589C11.9723 53.9568 11.9328 54.0538 11.8908 54.1498C11.8602 54.2195 11.8284 54.2888 11.7952 54.3574C11.7872 54.374 11.7791 54.3907 11.7708 54.4074C11.7643 54.4207 11.7577 54.4339 11.751 54.4471C11.7426 54.4639 11.734 54.4808 11.7253 54.4977C11.7199 54.5082 11.7145 54.5187 11.709 54.5292C11.6996 54.5472 11.6901 54.5652 11.6805 54.5831C11.6503 54.6397 11.619 54.696 11.5868 54.7519L11.5862 54.7531L27.2618 63.8032ZM37.8823 63.8032L53.5579 54.7531C53.5323 54.7086 53.5073 54.6639 53.4828 54.619C53.4763 54.6069 53.4698 54.5949 53.4634 54.5829C53.4539 54.5652 53.4444 54.5472 53.4351 54.5292C53.4296 54.5187 53.4241 54.5082 53.4187 54.4977C53.4089 54.4786 53.3992 54.4595 53.3896 54.4403C53.3848 54.4307 53.3799 54.4209 53.3751 54.4112C53.3656 54.392 53.3562 54.3728 53.3469 54.3536C53.3399 54.3389 53.3328 54.3241 53.3258 54.3092C53.323 54.3033 53.3202 54.2973 53.3174 54.2913L53.3258 54.3092C53.3124 54.2808 53.2992 54.2522 53.2862 54.2236C53.2647 54.1763 53.2438 54.1286 53.2235 54.0806L53.2212 54.0751C53.168 53.9491 53.1191 53.8215 53.0745 53.6924C53.0715 53.6838 53.0686 53.6752 53.0656 53.6666C53.0587 53.6464 53.0519 53.6261 53.0452 53.6057C53.0422 53.5964 53.0391 53.587 53.0361 53.5776C53.0299 53.5586 53.0238 53.5395 53.0178 53.5204C53.0028 53.4724 52.9884 53.4242 52.9745 53.3758C52.9711 53.364 52.9677 53.352 52.9644 53.3401C52.9467 53.277 52.9301 53.2136 52.9145 53.1501C52.9003 53.0924 52.8869 53.0345 52.8744 52.9764C52.8715 52.9629 52.8686 52.9492 52.8658 52.9355C52.8545 52.8817 52.8441 52.8279 52.8343 52.7739C52.8265 52.7308 52.8192 52.6876 52.8123 52.6443L52.81 52.6292C52.7618 52.3206 52.737 52.0079 52.7364 51.6938C52.7363 51.679 52.7363 51.664 52.7364 51.649C52.7365 51.6359 52.7366 51.623 52.7368 51.6101L52.7364 51.649C52.7366 51.6191 52.737 51.5893 52.7376 51.5595C52.738 51.5355 52.7386 51.5116 52.7394 51.4877C52.7399 51.4725 52.7404 51.4573 52.741 51.4422C52.7417 51.4235 52.7426 51.4048 52.7435 51.3861C52.7441 51.374 52.7447 51.3619 52.7453 51.3498C52.7482 51.297 52.7517 51.2443 52.756 51.1916C52.7575 51.1721 52.7592 51.1528 52.7609 51.1334C52.7731 50.9985 52.7898 50.8636 52.811 50.7289C52.8126 50.7189 52.8142 50.7089 52.8159 50.6989C52.8257 50.6383 52.8365 50.5778 52.8483 50.5174C52.8504 50.5065 52.8525 50.4957 52.8547 50.4849C52.8594 50.4614 52.8642 50.438 52.8692 50.4146C52.8715 50.4036 52.8739 50.3927 52.8763 50.3817C52.88 50.3644 52.8839 50.3472 52.8878 50.33C52.8922 50.3106 52.8967 50.2912 52.9013 50.2718C52.9149 50.2145 52.9294 50.1574 52.9447 50.1003C52.9511 50.0764 52.9577 50.0524 52.9645 50.0285C52.968 50.0158 52.9716 50.0032 52.9753 49.9906L45.5898 45.7265C44.6593 46.163 43.6205 46.4069 42.5247 46.4069L34.2192 46.407L34.2192 60.9622C34.2495 60.9706 34.2797 60.9793 34.3097 60.9881C34.3188 60.9908 34.3278 60.9935 34.3369 60.9962C34.3585 61.0027 34.3799 61.0093 34.4013 61.016C34.4122 61.0193 34.423 61.0228 34.4339 61.0262C34.4535 61.0325 34.473 61.0388 34.4925 61.0452C34.5037 61.0489 34.5151 61.0527 34.5264 61.0565C34.5795 61.0743 34.6323 61.0929 34.6848 61.1122C34.6937 61.1154 34.7027 61.1188 34.7117 61.1221C34.7293 61.1287 34.7467 61.1352 34.7641 61.1419C34.8108 61.1598 34.8573 61.1783 34.9035 61.1973C34.973 61.2259 35.0418 61.2557 35.1099 61.2867C35.147 61.3036 35.1839 61.3208 35.2205 61.3384C35.2329 61.3444 35.2454 61.3504 35.2579 61.3565C35.3342 61.3937 35.4096 61.4325 35.484 61.4728C35.5032 61.4831 35.5223 61.4936 35.5413 61.5042C35.5499 61.5089 35.5586 61.5138 35.5673 61.5186C35.5833 61.5276 35.5991 61.5366 35.615 61.5457C35.6314 61.5551 35.6477 61.5645 35.664 61.574C35.6753 61.5807 35.6868 61.5875 35.6983 61.5943C35.7178 61.6058 35.7371 61.6175 35.7564 61.6292C35.7623 61.6328 35.7682 61.6364 35.7741 61.64C35.7969 61.654 35.8197 61.6682 35.8424 61.6826C35.8504 61.6876 35.8584 61.6927 35.8663 61.6977C35.8807 61.7069 35.8951 61.7162 35.9095 61.7256C35.9239 61.7349 35.9383 61.7444 35.9526 61.7539C35.9659 61.7627 35.979 61.7714 35.9921 61.7802C36.0054 61.7892 36.0187 61.7982 36.032 61.8073C36.0503 61.8199 36.0686 61.8325 36.0868 61.8453C36.1378 61.8811 36.1883 61.9176 36.2382 61.9549C36.2754 61.9827 36.3124 62.011 36.3491 62.0397C36.3615 62.0495 36.3738 62.0592 36.3861 62.0689C36.4767 62.141 36.5651 62.2156 36.6514 62.2925C36.6616 62.3016 36.6719 62.3109 36.6822 62.3202C36.7016 62.3377 36.7207 62.3552 36.7397 62.3728C36.7461 62.3787 36.7526 62.3848 36.759 62.3908C36.7673 62.3986 36.7756 62.4064 36.7839 62.4142C36.8004 62.4298 36.8168 62.4455 36.8331 62.4613C36.8416 62.4694 36.8498 62.4775 36.8581 62.4856C36.8682 62.4954 36.8783 62.5054 36.8884 62.5154L36.9071 62.5341C36.9125 62.5394 36.9179 62.5448 36.9232 62.5502C36.9594 62.5866 36.9952 62.6236 37.0305 62.661L37.0382 62.6692C37.0671 62.6998 37.0956 62.7308 37.1238 62.762C37.1472 62.788 37.1705 62.8142 37.1935 62.8406C37.2271 62.8791 37.2603 62.9181 37.2929 62.9574C37.3017 62.968 37.3105 62.9787 37.3192 62.9894C37.332 63.005 37.3447 63.0207 37.3573 63.0364C37.3884 63.0751 37.4189 63.1142 37.449 63.1536C37.4583 63.1658 37.4676 63.1781 37.4769 63.1904C37.4849 63.201 37.4928 63.2117 37.5007 63.2224C37.5135 63.2396 37.5261 63.2568 37.5386 63.2741C37.5454 63.2834 37.5521 63.2927 37.5588 63.3021C37.5717 63.3201 37.5845 63.3381 37.5972 63.3563C37.6035 63.3652 37.6096 63.3741 37.6158 63.3829C37.627 63.3991 37.6382 63.4154 37.6493 63.4318C37.6575 63.4439 37.6656 63.456 37.6738 63.4682C37.735 63.5599 37.7938 63.6532 37.8501 63.7482L37.8823 63.8032ZM7.73557 54.2154C8.83835 53.5787 9.3686 52.3312 9.14569 51.1469C9.14422 51.1383 9.14255 51.1297 9.14085 51.1211L9.14569 51.1469C9.1367 51.0992 9.12648 51.0515 9.11503 51.004C9.06547 50.7986 8.99303 50.5968 8.89752 50.4024C8.89305 50.3932 8.88844 50.384 8.88378 50.3747L8.89752 50.4024C8.88734 50.3816 8.87691 50.361 8.86621 50.3405L8.88378 50.3747C8.87063 50.3487 8.85705 50.3227 8.84304 50.2969L8.80416 50.2274C8.76438 50.1585 8.72211 50.0917 8.67753 50.027C8.67088 50.0173 8.66417 50.0077 8.65741 49.9982L8.67753 50.027C8.66304 50.006 8.6483 49.9852 8.63332 49.9647L8.65741 49.9982C8.64177 49.9761 8.62586 49.9542 8.60969 49.9327L8.63332 49.9647C8.61599 49.9409 8.59834 49.9174 8.58037 49.8943L8.60969 49.9327C8.59571 49.914 8.58155 49.8956 8.5672 49.8774L8.58037 49.8943C8.56353 49.8726 8.54642 49.8512 8.52905 49.83L8.5672 49.8774C8.55105 49.8569 8.53466 49.8366 8.51804 49.8167L8.52905 49.83C8.49845 49.7928 8.46702 49.7565 8.4348 49.721C7.53111 48.7267 6.02724 48.4596 4.81614 49.1588C3.4198 49.965 2.94138 51.7505 3.74755 53.1468C4.55373 54.5432 6.33923 55.0216 7.73557 54.2154ZM61.3965 53.1468C62.2027 51.7505 61.7242 49.965 60.3279 49.1588C59.2211 48.5198 57.8699 48.6878 56.9556 49.4803C56.9366 49.4967 56.9178 49.5134 56.8993 49.5303L56.8444 49.5819C56.8142 49.6109 56.7845 49.6408 56.7554 49.6713C56.7484 49.6787 56.7414 49.6861 56.7344 49.6936L56.7554 49.6713C56.74 49.6875 56.7248 49.7039 56.7097 49.7205L56.7344 49.6936C56.7177 49.7116 56.7011 49.7298 56.6847 49.7483L56.7097 49.7205C56.6922 49.7397 56.6749 49.7593 56.6578 49.7791L56.6847 49.7483C56.6673 49.768 56.6501 49.7879 56.6332 49.8081L56.6578 49.7791C56.6409 49.7987 56.6242 49.8186 56.6077 49.8388L56.6332 49.8081C56.5809 49.8704 56.531 49.9352 56.4836 50.0024C56.4781 50.0102 56.4726 50.0181 56.4672 50.026L56.4836 50.0024C56.4327 50.0747 56.3847 50.1497 56.3399 50.2274C56.3265 50.2506 56.3134 50.2739 56.3007 50.2973C56.2959 50.3062 56.2911 50.3152 56.2864 50.3241L56.3007 50.2973C56.2866 50.3234 56.2729 50.3495 56.2597 50.3758L56.2864 50.3241C56.2733 50.3489 56.2606 50.3738 56.2482 50.3988L56.2597 50.3758C56.2486 50.3978 56.2379 50.4199 56.2274 50.442L56.2482 50.3988C56.2353 50.425 56.2228 50.4513 56.2108 50.4777L56.2274 50.442C56.2019 50.496 56.1781 50.5505 56.1561 50.6054C56.1529 50.6134 56.1498 50.6212 56.1468 50.6291L56.1561 50.6054C56.1136 50.7118 56.0775 50.8199 56.0481 50.9292C56.0444 50.9427 56.0409 50.9562 56.0375 50.9696L56.0481 50.9292C56.0414 50.9539 56.035 50.9788 56.029 51.0037L56.0375 50.9696C56.0314 50.9936 56.0256 51.0177 56.0202 51.0417L56.029 51.0037C56.0222 51.0318 56.0158 51.06 56.0099 51.0882L56.0202 51.0417C56.0143 51.0676 56.0088 51.0935 56.0037 51.1194L56.0099 51.0882C56.0051 51.1109 56.0007 51.1335 55.9964 51.1563L56.0037 51.1194C55.7672 52.3118 56.2971 53.5738 57.4085 54.2154C58.8048 55.0216 60.5903 54.5432 61.3965 53.1468ZM32.572 69.7886C34.1844 69.7886 35.4914 68.4816 35.4914 66.8692C35.4914 65.6348 34.7254 64.5794 33.6428 64.1524C33.6349 64.149 33.6269 64.1459 33.6189 64.1428L33.6428 64.1524C33.6228 64.1445 33.6027 64.1368 33.5826 64.1294L33.6189 64.1428C33.5952 64.1338 33.5715 64.125 33.5476 64.1166L33.5826 64.1294C33.56 64.1211 33.5373 64.113 33.5145 64.1052L33.5476 64.1166C33.5236 64.1081 33.4996 64.0999 33.4754 64.0921L33.5145 64.1052C33.4893 64.0966 33.4639 64.0884 33.4383 64.0804L33.4754 64.0921C33.4504 64.084 33.4252 64.0762 33.3999 64.0688L33.4383 64.0804C33.4162 64.0736 33.394 64.067 33.3716 64.0606L33.3999 64.0688C33.3757 64.0616 33.3514 64.0548 33.3269 64.0483L33.3716 64.0606C33.3453 64.0531 33.3187 64.046 33.2921 64.0392L33.3269 64.0483C33.2676 64.0325 33.2076 64.0185 33.1471 64.0064C33.1342 64.0038 33.1215 64.0014 33.1087 63.999L33.1471 64.0064C33.124 64.0018 33.1008 63.9975 33.0776 63.9934L33.1087 63.999C33.0824 63.9941 33.0561 63.9896 33.0296 63.9854L33.0776 63.9934C33.0497 63.9885 33.0216 63.9841 32.9934 63.98L33.0296 63.9854C33.011 63.9825 32.9924 63.9797 32.9738 63.9772L32.9934 63.98C32.9644 63.9758 32.9353 63.972 32.9061 63.9687L32.9738 63.9772C32.9481 63.9736 32.9224 63.9705 32.8965 63.9676L32.9061 63.9687C32.8816 63.9659 32.857 63.9634 32.8324 63.9612L32.8965 63.9676C32.8687 63.9645 32.8407 63.9618 32.8127 63.9595L32.8324 63.9612C32.8049 63.9588 32.7773 63.9568 32.7497 63.9551L32.8127 63.9595C32.7861 63.9574 32.7593 63.9556 32.7325 63.9541L32.7497 63.9551C32.7237 63.9535 32.6976 63.9523 32.6714 63.9514L32.7325 63.9541C32.6794 63.9512 32.6259 63.9498 32.572 63.9498L32.4926 63.9508C32.486 63.951 32.4793 63.9512 32.4727 63.9514L32.4925 63.9508C32.4655 63.9516 32.4385 63.9526 32.4116 63.9541L32.4727 63.9514C32.4465 63.9523 32.4203 63.9535 32.3943 63.9551L32.4116 63.9541C32.3848 63.9556 32.358 63.9574 32.3314 63.9596L32.3943 63.9551C32.3666 63.9567 32.3391 63.9588 32.3117 63.9612L32.3314 63.9596C32.3033 63.9619 32.2753 63.9645 32.2475 63.9676L32.3117 63.9612C32.287 63.9634 32.2624 63.9659 32.2379 63.9687L32.2475 63.9676C32.2213 63.9705 32.1951 63.9738 32.1691 63.9774L32.2379 63.9687C32.2095 63.9719 32.1812 63.9756 32.153 63.9796L32.1691 63.9774C32.1499 63.98 32.1309 63.9828 32.1118 63.9859L32.153 63.9796C32.1239 63.9838 32.0949 63.9884 32.0662 63.9934L32.1118 63.9859C32.0887 63.9895 32.0656 63.9935 32.0426 63.9977L32.0662 63.9934C32.0424 63.9976 32.0187 64.002 31.9951 64.0068L32.0426 63.9977C31.9776 64.0096 31.9132 64.0236 31.8496 64.0398C31.8403 64.0422 31.8309 64.0446 31.8216 64.0471L31.8496 64.0398C31.8235 64.0464 31.7975 64.0534 31.7717 64.0608L31.8216 64.0471C31.7975 64.0535 31.7735 64.0602 31.7496 64.0672L31.7717 64.0608C31.7484 64.0674 31.7252 64.0743 31.7021 64.0815L31.7496 64.0672C31.723 64.075 31.6966 64.0831 31.6704 64.0917L31.7021 64.0815C31.6778 64.089 31.6537 64.0969 31.6296 64.1051L31.6704 64.0917C31.6456 64.0997 31.6209 64.1081 31.5964 64.1168L31.6296 64.1051C31.6068 64.1128 31.5841 64.1209 31.5615 64.1292L31.5964 64.1168C31.5722 64.1253 31.5481 64.1342 31.5242 64.1434L31.5615 64.1292C31.5421 64.1363 31.5228 64.1437 31.5035 64.1512L31.5242 64.1434C30.4295 64.5645 29.6526 65.6261 29.6526 66.8692C29.6526 68.4816 30.9597 69.7886 32.572 69.7886Z" fill="#276CFF"/>
</svg>
